<svg width="78" height="91" viewBox="0 0 78 91" fill="none" xmlns="http://www.w3.org/2000/svg">
<path d="M77.4011 24.6906L77.3983 24.6198C77.3587 23.7457 77.3323 22.8209 77.3164 21.792C77.2421 16.7745 73.2535 12.6241 68.2353 12.3437C57.7726 11.7598 49.6787 8.34812 42.7631 1.60742L42.704 1.55118C40.4483 -0.51706 37.0457 -0.51706 34.7893 1.55118L34.7303 1.60742C27.8146 8.34812 19.7208 11.7598 9.25811 12.3444C4.24059 12.6242 0.251295 16.7745 0.177007 21.7927C0.161733 22.8147 0.134657 23.7395 0.0950831 24.6198L0.0909175 24.7844C-0.112505 35.4533 -0.36522 48.7312 4.07674 60.7831C6.5192 67.4107 10.2183 73.1717 15.0706 77.9074C20.597 83.3005 27.8355 87.5821 36.5847 90.6327C36.8694 90.732 37.1651 90.8125 37.4664 90.8729C37.8913 90.9576 38.319 91 38.7467 91C39.1744 91 39.6027 90.9576 40.0269 90.8729C40.3282 90.8125 40.6261 90.7313 40.9121 90.6313C49.6509 87.5751 56.8818 83.2915 62.4034 77.8991C67.2536 73.162 70.9526 67.3996 73.3972 60.7706C77.8558 48.6826 77.6038 35.3797 77.4011 24.6906ZM68.3873 58.9232C63.7023 71.6256 54.1387 80.3491 39.1501 85.5909C39.0966 85.609 39.0397 85.6249 38.9807 85.6367C38.8258 85.6673 38.6682 85.6673 38.5113 85.636C38.453 85.6242 38.3961 85.609 38.3433 85.5909C23.3387 80.3589 13.7688 71.6402 9.08731 58.9371C4.99318 47.828 5.22507 35.6393 5.42988 24.8864L5.43127 24.8267C5.47293 23.9026 5.5007 22.9348 5.51597 21.8712C5.5493 19.6433 7.32386 17.8 9.55595 17.6757C15.4767 17.3452 20.6782 16.201 25.4576 14.1779C30.2307 12.1576 34.47 9.30969 38.4162 5.47174C38.6169 5.30234 38.8772 5.30165 39.0772 5.47174C43.0241 9.30969 47.2633 12.1576 52.0358 14.1779C56.8152 16.201 62.0166 17.3452 67.9381 17.6757C70.1702 17.8 71.9448 19.6433 71.9774 21.8719C71.9934 22.9411 72.0211 23.9089 72.0628 24.8267C72.2669 35.5921 72.4932 47.7905 68.3873 58.9232Z" fill="#FCB041"/>
<path d="M38.7449 22.8232C26.2396 22.8232 16.0664 32.9972 16.0664 45.5018C16.0664 58.007 26.2396 68.181 38.7449 68.181C51.2495 68.181 61.4234 58.007 61.4234 45.5018C61.4234 32.9972 51.2495 22.8232 38.7449 22.8232ZM38.7449 62.8406C29.184 62.8406 21.4061 55.0626 21.4061 45.5018C21.4061 35.9409 29.184 28.1629 38.7449 28.1629C48.3051 28.1629 56.0831 35.9409 56.0831 45.5018C56.0831 55.0626 48.3051 62.8406 38.7449 62.8406Z" fill="#FCB041"/>
<path d="M45.2628 38.4611L34.7293 48.9946L31.8702 46.1356C30.8274 45.0928 29.1369 45.0928 28.0941 46.1356C27.052 47.1784 27.052 48.869 28.0941 49.9111L32.8415 54.6585C33.3629 55.1799 34.0461 55.4403 34.7293 55.4403C35.4124 55.4403 36.0956 55.1799 36.617 54.6585L49.039 42.2366C50.0811 41.1938 50.0811 39.5032 49.039 38.4611C47.9962 37.4176 46.3056 37.4176 45.2628 38.4611Z" fill="#FCB041"/>
</svg>
