<svg width="242" height="19" viewBox="0 0 242 19" fill="none" xmlns="http://www.w3.org/2000/svg">
<rect y="7" width="2" height="5" rx="1" fill="#416289" fill-opacity="0.3"/>
<rect x="225" y="7" width="2" height="5" rx="1" fill="#416289" fill-opacity="0.3"/>
<rect x="5" y="8" width="2" height="3" rx="1" fill="#416289" fill-opacity="0.3"/>
<rect x="230" y="8" width="2" height="3" rx="1" fill="#416289" fill-opacity="0.3"/>
<rect x="10" y="9" width="2" height="1" rx="0.5" fill="#416289" fill-opacity="0.3"/>
<rect x="235" y="9" width="2" height="1" rx="0.5" fill="#416289" fill-opacity="0.3"/>
<rect x="15" y="9" width="2" height="1" rx="0.5" fill="#416289" fill-opacity="0.3"/>
<rect x="240" y="9" width="2" height="1" rx="0.5" fill="#416289" fill-opacity="0.3"/>
<rect x="85" y="9" width="2" height="1" rx="0.5" fill="#416289" fill-opacity="0.3"/>
<rect x="155" y="9" width="2" height="1" rx="0.5" fill="#416289" fill-opacity="0.3"/>
<rect x="20" y="3" width="2" height="13" rx="1" fill="#416289" fill-opacity="0.3"/>
<rect x="90" y="3" width="2" height="13" rx="1" fill="#416289" fill-opacity="0.3"/>
<rect x="160" y="3" width="2" height="13" rx="1" fill="#416289" fill-opacity="0.3"/>
<rect x="25" y="2" width="2" height="15" rx="1" fill="#416289" fill-opacity="0.3"/>
<rect x="95" y="2" width="2" height="15" rx="1" fill="#416289" fill-opacity="0.3"/>
<rect x="165" y="2" width="2" height="15" rx="1" fill="#416289" fill-opacity="0.3"/>
<rect x="30" y="5" width="2" height="9" rx="1" fill="#416289" fill-opacity="0.3"/>
<rect x="100" y="5" width="2" height="9" rx="1" fill="#416289" fill-opacity="0.3"/>
<rect x="170" y="5" width="2" height="9" rx="1" fill="#416289" fill-opacity="0.3"/>
<rect x="35" y="3" width="2" height="13" rx="1" fill="#416289" fill-opacity="0.3"/>
<rect x="105" y="3" width="2" height="13" rx="1" fill="#416289" fill-opacity="0.3"/>
<rect x="175" y="3" width="2" height="13" rx="1" fill="#416289" fill-opacity="0.3"/>
<rect x="40" y="8" width="2" height="3" rx="1" fill="#416289" fill-opacity="0.3"/>
<rect x="110" y="8" width="2" height="3" rx="1" fill="#416289" fill-opacity="0.3"/>
<rect x="180" y="8" width="2" height="3" rx="1" fill="#416289" fill-opacity="0.3"/>
<rect x="45" y="6" width="2" height="7" rx="1" fill="#416289" fill-opacity="0.3"/>
<rect x="115" y="6" width="2" height="7" rx="1" fill="#416289" fill-opacity="0.3"/>
<rect x="185" y="6" width="2" height="7" rx="1" fill="#416289" fill-opacity="0.3"/>
<rect x="50" y="1" width="2" height="17" rx="1" fill="#416289" fill-opacity="0.3"/>
<rect x="120" y="1" width="2" height="17" rx="1" fill="#416289" fill-opacity="0.3"/>
<rect x="190" y="1" width="2" height="17" rx="1" fill="#416289" fill-opacity="0.3"/>
<rect x="55" y="5" width="2" height="9" rx="1" fill="#416289" fill-opacity="0.3"/>
<rect x="125" y="5" width="2" height="9" rx="1" fill="#416289" fill-opacity="0.3"/>
<rect x="195" y="5" width="2" height="9" rx="1" fill="#416289" fill-opacity="0.3"/>
<rect x="60" y="2" width="2" height="15" rx="1" fill="#416289" fill-opacity="0.3"/>
<rect x="130" y="2" width="2" height="15" rx="1" fill="#416289" fill-opacity="0.3"/>
<rect x="200" y="2" width="2" height="15" rx="1" fill="#416289" fill-opacity="0.3"/>
<rect x="65" y="2" width="2" height="15" rx="1" fill="#416289" fill-opacity="0.3"/>
<rect x="135" y="2" width="2" height="15" rx="1" fill="#416289" fill-opacity="0.3"/>
<rect x="205" y="2" width="2" height="15" rx="1" fill="#416289" fill-opacity="0.3"/>
<rect x="70" width="2" height="19" rx="1" fill="#416289" fill-opacity="0.3"/>
<rect x="140" width="2" height="19" rx="1" fill="#416289" fill-opacity="0.3"/>
<rect x="210" width="2" height="19" rx="1" fill="#416289" fill-opacity="0.3"/>
<rect x="75" y="4" width="2" height="11" rx="1" fill="#416289" fill-opacity="0.3"/>
<rect x="145" y="4" width="2" height="11" rx="1" fill="#416289" fill-opacity="0.3"/>
<rect x="215" y="4" width="2" height="11" rx="1" fill="#416289" fill-opacity="0.3"/>
<rect x="80" y="4" width="2" height="11" rx="1" fill="#416289" fill-opacity="0.3"/>
<rect x="150" y="4" width="2" height="11" rx="1" fill="#416289" fill-opacity="0.3"/>
<rect x="220" y="4" width="2" height="11" rx="1" fill="#416289" fill-opacity="0.3"/>
</svg>
